<svg xmlns="http://www.w3.org/2000/svg" viewBox="0 0 14 14"><defs><style>.cls-1{fill:#4285f4;}.cls-1,.cls-2,.cls-3,.cls-4{fill-rule:evenodd;}.cls-2{fill:#ea4335;}.cls-3{fill:#34a853;}.cls-4{fill:#fbbc04;}</style></defs><g id="Layer_2" data-name="Layer 2"><g id="google-image"><path class="cls-1" d="M11.9,14H7V12.6h4.9a.72.72,0,0,0,.7-.7V2.1a.71.71,0,0,0-.7-.69H7V0h4.9A2.11,2.11,0,0,1,14,2.1v9.8A2.11,2.11,0,0,1,11.9,14"/><path class="cls-2" d="M7,14H2.1A2.11,2.11,0,0,1,0,11.9V2.1A2.11,2.11,0,0,1,2.1,0H7V1.4H2.1a.69.69,0,0,0-.69.69h0v9.8a.7.7,0,0,0,.7.7H7Z"/><path class="cls-3" d="M8.4,7.7,6.82,9.63,5.6,8.4,2.8,11.2h8.4Z"/><path class="cls-4" d="M5.6,4.2A1.4,1.4,0,1,1,4.2,2.8h0A1.4,1.4,0,0,1,5.6,4.2"/></g></g></svg>